<?xml version="1.0" encoding="UTF-8"?>
<!DOCTYPE svg PUBLIC "-//W3C//DTD SVG 1.1//EN" "http://www.w3.org/Graphics/SVG/1.1/DTD/svg11.dtd">
<!-- Creator: CorelDRAW X7 -->
<svg xmlns="http://www.w3.org/2000/svg" xml:space="preserve" width="90.1304mm" height="38.554mm" version="1.1" style="shape-rendering:geometricPrecision; text-rendering:geometricPrecision; image-rendering:optimizeQuality; fill-rule:evenodd; clip-rule:evenodd"
viewBox="0 0 9013 3855"
 xmlns:xlink="http://www.w3.org/1999/xlink">
 <defs>
  <style type="text/css">
   <![CDATA[
    .fil1 {fill:#DA621F}
    .fil0 {fill:#603119}
   ]]>
  </style>
 </defs>
 <g id="Слой_x0020_1">
  <metadata id="CorelCorpID_0Corel-Layer"/>
  <g id="_2207969766640">
   <g>
    <path class="fil0" d="M8816 2667c-209,284 -518,416 -855,416 -552,0 -1054,-359 -1054,-979 0,-368 234,-716 542,-868 147,-73 311,-109 492,-109 553,0 1072,350 1072,979 0,194 -66,381 -197,561zm-541 -1004c90,178 109,394 74,605 -59,346 -255,600 -500,496 -146,-61 -259,-266 -287,-485 -13,-104 -10,-213 9,-326 59,-346 253,-613 502,-507 77,32 144,105 202,217zm-2342 -189c-51,-39 -91,-57 -156,-57 -77,-1 -134,28 -161,108l-8 43 0 457c91,0 149,-3 239,-33 116,-39 164,-178 164,-291 0,-73 -21,-183 -78,-227zm955 1485c0,66 -47,99 -110,99l-821 0c-72,0 -118,-38 -118,-112 0,-56 36,-83 80,-105 38,-20 57,-39 57,-59 0,-28 -133,-286 -158,-341l-84 -166c-36,8 -72,13 -110,11l0 453c4,29 10,50 19,64 9,15 25,27 48,38 41,24 76,56 76,107 0,70 -49,110 -116,110l-754 0c-70,0 -112,-38 -112,-110 0,-58 30,-83 77,-107 36,-16 58,-50 65,-102l0 -1239c-4,-29 -10,-50 -19,-63 -15,-22 -38,-36 -62,-47 -41,-20 -61,-53 -61,-100 0,-71 42,-110 112,-110l1216 0c179,0 356,37 474,138 88,74 143,184 143,340 0,252 -171,356 -363,476 57,73 108,152 152,233 67,124 128,260 187,389 25,51 36,59 85,84 59,15 97,58 97,119zm-2954 -480c0,-146 -15,-208 -131,-298 -104,29 -210,50 -319,64l0 414c0,108 40,134 142,134 193,0 288,-142 308,-314zm-86 -875c0,-69 -16,-107 -64,-157 -45,-47 -144,-39 -207,-39 -53,8 -84,46 -93,114l0 447c58,0 178,-55 239,-88 93,-68 125,-166 125,-277zm805 925c0,215 -163,397 -358,470 -105,40 -244,59 -420,59l-1108 0c-70,0 -112,-38 -112,-110 0,-58 30,-83 77,-107 24,-13 40,-29 50,-48 10,-20 15,-49 15,-86 4,-412 -6,-825 -6,-1237 0,-27 -19,-51 -59,-72 -48,-25 -77,-47 -77,-108 0,-71 42,-110 112,-110 437,0 873,0 1309,0 235,0 473,168 473,417 0,207 -137,325 -314,403 260,111 418,223 418,529z"/>
    <path class="fil0" d="M2838 3855c87,0 139,-31 188,-81l-53 -53c-39,37 -76,60 -132,60 -89,0 -153,-74 -153,-165 0,-92 64,-164 153,-164 52,0 92,23 129,57l52 -60c-44,-42 -96,-72 -181,-72 -140,0 -238,108 -238,239 0,134 100,239 235,239zm454 0c142,0 242,-109 242,-239 0,-131 -99,-239 -241,-239 -142,0 -242,109 -242,239 0,132 99,239 241,239zm1 -74c-92,0 -157,-75 -157,-165 0,-91 64,-164 156,-164 92,0 157,74 157,164 0,91 -64,165 -156,165zm313 66l81 0 0 -188 234 0 0 -74 -234 0 0 -126 263 0 0 -74 -344 0 0 462zm407 0l81 0 0 -188 234 0 0 -74 -234 0 0 -126 263 0 0 -74 -344 0 0 462zm407 0l346 0 0 -72 -265 0 0 -124 232 0 0 -73 -232 0 0 -120 262 0 0 -73 -343 0 0 462zm416 0l346 0 0 -72 -265 0 0 -124 232 0 0 -73 -232 0 0 -120 262 0 0 -73 -343 0 0 462zm654 0l81 0 0 -161 101 0 115 161 96 0 -125 -175c64,-18 110,-64 110,-140 0,-89 -63,-147 -172,-147l-206 0 0 462zm81 -233l0 -155 119 0c60,0 95,27 95,77 0,48 -37,78 -95,78l-119 0zm591 241c142,0 242,-109 242,-239 0,-131 -99,-239 -241,-239 -142,0 -242,109 -242,239 0,132 99,239 241,239zm1 -74c-92,0 -157,-75 -157,-165 0,-91 64,-164 156,-164 92,0 157,74 157,164 0,91 -64,165 -156,165zm245 66l84 0 47 -111 219 0 47 111 86 0 -204 -465 -75 0 -204 465zm161 -183l79 -185 80 185 -159 0zm529 190c97,0 165,-51 165,-138 0,-78 -51,-113 -149,-137 -88,-21 -109,-37 -109,-72 0,-32 28,-57 75,-57 42,0 84,17 126,48l43 -61c-47,-38 -100,-59 -168,-59 -91,0 -157,55 -157,135 0,86 55,115 153,138 86,21 105,39 105,72 0,36 -32,59 -82,59 -58,0 -102,-22 -146,-60l-49 58c56,50 122,74 193,74zm338 -7l82 0 0 -387 147 0 0 -75 -375 0 0 75 146 0 0 387zm293 0l81 0 0 -462 -81 0 0 462zm178 0l80 0 0 -328 255 328 68 0 0 -462 -80 0 0 320 -248 -320 -75 0 0 462zm715 8c82,0 147,-33 193,-72l0 -194 -197 0 0 71 118 0 0 86c-28,22 -68,35 -111,35 -95,0 -158,-70 -158,-165 0,-90 65,-164 150,-164 59,0 94,19 130,49l51 -61c-47,-40 -97,-63 -177,-63 -140,0 -239,110 -239,239 0,136 95,239 240,239z"/>
   </g>
   <g>
    <path class="fil1" d="M140 1703c-195,301 -269,981 339,1588 101,96 149,35 136,-37 -67,-419 200,-811 309,-980 268,-418 665,-922 493,-1445 -83,-253 -284,-539 -693,-829 141,314 88,555 17,771 -138,419 -323,504 -601,932z"/>
    <path class="fil0" d="M2094 1616c-145,-386 -567,-644 -556,-366 27,307 -78,601 -243,863 -154,245 -189,218 -426,621 -127,218 -254,508 -54,745 160,188 436,149 664,-50 257,-223 349,-347 507,-595 159,-249 306,-687 108,-1218z"/>
   </g>
  </g>
 </g>
</svg>
